<svg width="23" height="22" viewBox="0 0 23 22" fill="none" xmlns="http://www.w3.org/2000/svg">
<path fill-rule="evenodd" clip-rule="evenodd" d="M20.7384 2.50601C21.4824 3.52984 21.8166 4.70939 21.9032 5.96531C22.0307 7.87298 22.0164 9.76809 22.002 11.6677C21.9973 12.2847 21.9926 12.9022 21.9928 13.5207C21.9928 14.6143 21.9928 15.7204 21.7997 16.7788C21.337 19.6476 19.3583 21.5101 16.4858 21.8458C15.4238 21.9861 14.3633 21.992 13.2909 21.992C11.5187 22.0037 9.73102 22.0037 7.95143 21.9861C7.84155 21.9833 7.7316 21.9808 7.6216 21.9782C6.60454 21.9549 5.584 21.9315 4.58319 21.6916C2.07648 21.0217 0.455532 19.1232 0.161013 16.5246C0.024404 15.4369 0.00971479 14.3668 0.00971479 13.2791C0.00931123 13.1817 0.00890324 13.0844 0.00849519 12.987C0.00147704 11.3124 -0.00555549 9.63436 0.00971479 7.96157C0.0116817 7.87272 0.0134936 7.78382 0.015306 7.6949C0.0365044 6.65487 0.0577682 5.61164 0.327736 4.59334C0.973326 2.06607 2.87411 0.445115 5.50053 0.151331C6.89982 -0.002737 8.29971 -0.00114889 9.70405 0.000444278C9.84618 0.000605511 9.98835 0.000766796 10.1306 0.000766796H10.7872C11.2776 0.00532652 11.7683 0.00450538 12.2593 0.00368397C13.5081 0.00159458 14.7579 -0.000496566 16.0048 0.0859641C17.9136 0.24828 19.5581 0.918841 20.7384 2.50601ZM15.5428 5.11995C15.5428 5.87938 16.1414 6.46842 16.8839 6.45153C17.6169 6.45153 18.2089 5.86102 18.1913 5.1082C18.1913 4.38549 17.5912 3.80747 16.8663 3.80747C16.1326 3.80747 15.5428 4.39798 15.5428 5.11995ZM11.0082 16.6451C14.1209 16.6451 16.6584 14.1119 16.6584 10.9978C16.6584 7.88592 14.137 5.34029 11.031 5.34102C7.89487 5.34102 5.35732 7.85801 5.34703 10.9648C5.34189 14.1119 7.86403 16.6451 11.0082 16.6451ZM7.35339 10.9883C7.35339 8.95087 8.98977 7.34241 11.0411 7.34241C13.0374 7.34241 14.6569 8.98466 14.6561 10.9985C14.6561 13.0293 13.0183 14.6562 10.9765 14.6562C8.96259 14.6437 7.35339 13.0124 7.35339 10.9883Z" fill="white"/>
</svg>
