<svg width="20" height="23" viewBox="0 0 20 23" fill="none" xmlns="http://www.w3.org/2000/svg">
<path fill-rule="evenodd" clip-rule="evenodd" d="M9.65083 0C8.18824 0 6.78555 0.581012 5.75134 1.61522C4.71714 2.64943 4.13612 4.05211 4.13612 5.51471V6.89338H2.75745C2.41804 6.89336 2.09055 7.01853 1.8377 7.24494C1.58484 7.47134 1.42438 7.78306 1.38704 8.1204L0.00836652 20.5285C-0.0129574 20.7212 0.00659147 20.9162 0.0657372 21.1008C0.124883 21.2854 0.222296 21.4555 0.351617 21.5999C0.480939 21.7443 0.639261 21.8598 0.81625 21.9389C0.99324 22.018 1.18492 22.0588 1.37877 22.0588H17.9229C18.1167 22.0588 18.3084 22.018 18.4854 21.9389C18.6624 21.8598 18.8207 21.7443 18.95 21.5999C19.0794 21.4555 19.1768 21.2854 19.2359 21.1008C19.2951 20.9162 19.3146 20.7212 19.2933 20.5285L17.9146 8.1204C17.8773 7.78306 17.7168 7.47134 17.464 7.24494C17.2111 7.01853 16.8836 6.89336 16.5442 6.89338H15.1655V5.51471C15.1655 4.05211 14.5845 2.64943 13.5503 1.61522C12.5161 0.581012 11.1134 0 9.65083 0ZM12.4082 6.89338V5.51471C12.4082 4.78341 12.1177 4.08207 11.6006 3.56496C11.0835 3.04786 10.3821 2.75735 9.65083 2.75735C8.91953 2.75735 8.21819 3.04786 7.70109 3.56496C7.18398 4.08207 6.89348 4.78341 6.89348 5.51471V6.89338H12.4082ZM4.13612 11.0294C4.13612 10.6638 4.28138 10.3131 4.53993 10.0545C4.79848 9.79599 5.14915 9.65074 5.5148 9.65074C5.88045 9.65074 6.23112 9.79599 6.48967 10.0545C6.74822 10.3131 6.89348 10.6638 6.89348 11.0294C6.89348 11.3951 6.74822 11.7457 6.48967 12.0043C6.23112 12.2628 5.88045 12.4081 5.5148 12.4081C5.14915 12.4081 4.79848 12.2628 4.53993 12.0043C4.28138 11.7457 4.13612 11.3951 4.13612 11.0294ZM13.7869 9.65074C13.4212 9.65074 13.0705 9.79599 12.812 10.0545C12.5534 10.3131 12.4082 10.6638 12.4082 11.0294C12.4082 11.3951 12.5534 11.7457 12.812 12.0043C13.0705 12.2628 13.4212 12.4081 13.7869 12.4081C14.1525 12.4081 14.5032 12.2628 14.7617 12.0043C15.0203 11.7457 15.1655 11.3951 15.1655 11.0294C15.1655 10.6638 15.0203 10.3131 14.7617 10.0545C14.5032 9.79599 14.1525 9.65074 13.7869 9.65074Z" fill="white"/>
</svg>
