<svg width="20" height="17" viewBox="0 0 20 17" fill="none" xmlns="http://www.w3.org/2000/svg">
<path d="M18 0.403809H2C0.9 0.403809 0.00999999 1.30381 0.00999999 2.40381L0 14.4038C0 15.5038 0.9 16.4038 2 16.4038H18C19.1 16.4038 20 15.5038 20 14.4038V2.40381C20 1.30381 19.1 0.403809 18 0.403809ZM17.6 4.65381L10.53 9.07381C10.21 9.27381 9.79 9.27381 9.47 9.07381L2.4 4.65381C2.15 4.49381 2 4.22381 2 3.93381C2 3.26381 2.73 2.86381 3.3 3.21381L10 7.40381L16.7 3.21381C17.27 2.86381 18 3.26381 18 3.93381C18 4.22381 17.85 4.49381 17.6 4.65381Z" fill="#EBE5ED"/>
</svg>
