<svg width="18" height="19" viewBox="0 0 18 19" fill="none" xmlns="http://www.w3.org/2000/svg">
<path d="M16.23 12.6638L13.69 12.3738C13.08 12.3038 12.48 12.5138 12.05 12.9438L10.21 14.7838C7.38 13.3438 5.06 11.0338 3.62 8.19382L5.47 6.34382C5.9 5.91382 6.11 5.31382 6.04 4.70382L5.75 2.18382C5.63 1.17382 4.78 0.413818 3.76 0.413818H2.03C0.900003 0.413818 -0.0399975 1.35382 0.0300025 2.48382C0.560003 11.0238 7.39 17.8438 15.92 18.3738C17.05 18.4438 17.99 17.5038 17.99 16.3738V14.6438C18 13.6338 17.24 12.7838 16.23 12.6638Z" fill="#EBE5ED"/>
</svg>
