<svg width="21" height="20" viewBox="0 0 21 20" fill="none" xmlns="http://www.w3.org/2000/svg">
<path fill-rule="evenodd" clip-rule="evenodd" d="M21 7.60371C20.6855 7.94143 20.4124 8.23939 20.1309 8.53407C18.8727 9.87585 17.6228 11.221 16.3563 12.5528C16.2683 12.6364 16.2031 12.7411 16.1669 12.857C16.1307 12.9729 16.1246 13.0962 16.1494 13.215C16.4226 15.2935 16.6791 17.3744 16.944 19.4546C16.9606 19.5903 16.9689 19.7277 16.9854 19.9173L15.2555 19.1144C13.7572 18.4133 12.259 17.7072 10.7525 17.0202C10.5903 16.956 10.4097 16.956 10.2475 17.0202C8.29405 17.9183 6.3489 18.8329 4.40368 19.7426C4.2878 19.7956 4.17183 19.8444 4.00628 19.9181C4.06422 19.4579 4.10565 19.0556 4.15532 18.6541C4.38709 16.8188 4.6216 14.9839 4.85889 13.1496C4.87859 13.0459 4.8715 12.9389 4.83817 12.8388C4.80485 12.7387 4.74642 12.6488 4.66852 12.5776C3.2034 11.0325 1.74377 9.48129 0.289692 7.92402C0.206917 7.83214 0.124162 7.73612 0 7.59871C0.645645 7.46958 1.2416 7.3504 1.83758 7.23369C3.44341 6.92577 5.0493 6.62087 6.65514 6.31902C6.77549 6.3052 6.8903 6.26095 6.98878 6.19041C7.08727 6.11988 7.16612 6.02539 7.21795 5.9159C8.26092 4.00877 9.30944 2.1069 10.3634 0.210247C10.3966 0.154787 10.4297 0.101813 10.4959 0C10.587 0.152306 10.6697 0.27148 10.7359 0.39647C11.7457 2.21752 12.7639 4.04354 13.7572 5.877C13.8167 5.99995 13.9064 6.10587 14.0178 6.18488C14.1292 6.2639 14.2589 6.31346 14.3946 6.32897C16.4474 6.71139 18.492 7.10705 20.5365 7.49857C20.6772 7.52341 20.8096 7.55901 21 7.60371Z" fill="#D2D2D2"/>
</svg>
