<svg width="21" height="22" viewBox="0 0 21 22" fill="none" xmlns="http://www.w3.org/2000/svg">
<path d="M20.1186 8.13412C20.0382 6.89529 19.8344 5.67863 19.4019 4.50653C18.8148 2.9156 17.7889 1.74487 16.2003 1.09336C15.397 0.76388 14.5701 0.518876 13.7195 0.351473C11.8811 -0.0102491 10.0283 -0.0812077 8.16452 0.0856221C6.7973 0.20801 5.46632 0.485888 4.18695 0.995827C2.75272 1.5675 1.64928 2.49185 0.994276 3.91692C0.62717 4.71568 0.382968 5.54868 0.241451 6.41307C-0.0317875 8.082 -0.0356247 9.76312 0.0466162 11.4451C0.0991908 12.5201 0.273981 13.5778 0.633184 14.598C1.23115 16.2963 2.28785 17.5884 3.95959 18.3279C4.25751 18.4597 4.5674 18.5643 4.87855 18.684C4.87855 18.7674 4.87855 18.8457 4.87855 18.924C4.87832 19.6112 4.86916 20.2985 4.88096 20.9854C4.88858 21.4292 5.01789 21.8182 5.48173 22.0001C5.61059 22.0001 5.73945 22.0001 5.86831 22.0001C6.1857 21.7279 6.5319 21.4824 6.81425 21.1777C7.31485 20.6375 7.78127 20.0652 8.25129 19.4974C8.35856 19.3678 8.46199 19.3196 8.63059 19.3308C10.7719 19.4733 12.8885 19.3438 14.9705 18.7766C16.1432 18.4571 17.2184 17.9775 18.0794 17.092C19.1059 16.0361 19.6368 14.7394 19.8658 13.3129C20.1412 11.598 20.2311 9.86896 20.1186 8.13412ZM12.7295 15.5216C10.2972 14.514 8.14201 13.1361 6.58161 10.9546C5.80279 9.86581 5.22808 8.67017 4.72667 7.43576C4.61247 7.15467 4.50709 6.86998 4.44427 6.70756C4.45664 6.16767 4.61379 5.81803 4.88273 5.54353C5.17052 5.24979 5.48614 4.97317 5.82633 4.74334C6.25586 4.45309 6.64198 4.53722 6.94511 4.95587C7.37207 5.54553 7.79747 6.13794 8.18875 6.75137C8.52435 7.27752 8.43455 7.72096 7.94014 8.1037C7.24968 8.63827 7.26829 8.85149 7.58918 9.58215C8.19173 10.9541 9.11316 12.0078 10.5673 12.5177C11.0713 12.6944 11.265 12.6367 11.5861 12.2219C11.6606 12.1258 11.7337 12.0287 11.8086 11.9329C12.0888 11.5746 12.4971 11.4666 12.8955 11.6858C13.6381 12.0942 14.3175 12.5943 14.923 13.1889C15.1498 13.4117 15.2006 13.6992 15.0785 13.9827C14.8003 14.6293 14.3766 15.161 13.7426 15.4953C13.4144 15.6684 13.0763 15.6654 12.7295 15.5216ZM10.6989 5.97781C10.5996 5.96613 10.5005 5.95187 10.401 5.94076C10.2156 5.92003 10.1364 5.80921 10.1536 5.63247C10.1716 5.4472 10.2914 5.37956 10.4674 5.38976C12.552 5.51054 14.04 7.0537 14.0722 9.12839C14.0719 9.20703 14.0758 9.28589 14.0711 9.36429C14.0616 9.52293 13.9772 9.6223 13.8166 9.62533C13.647 9.62854 13.557 9.53146 13.5419 9.36126C13.5142 9.04856 13.514 8.72956 13.4484 8.42482C13.1553 7.06269 12.1117 6.14378 10.6989 5.97781ZM12.6916 8.88442C12.6913 9.04232 12.5979 9.14088 12.4401 9.1505C12.2924 9.15949 12.1962 9.0796 12.1687 8.93132C12.1543 8.85424 12.1482 8.77549 12.1412 8.69726C12.0733 7.93899 11.6512 7.51221 10.8976 7.44097C10.8762 7.43896 10.8547 7.43902 10.8333 7.43713C10.6565 7.42167 10.5553 7.3282 10.5553 7.14785C10.5553 6.9749 10.6762 6.87845 10.8729 6.88223C11.8142 6.90044 12.5145 7.52773 12.6528 8.47946C12.6723 8.61359 12.6918 8.74938 12.6916 8.88442ZM15.228 10.1958C15.0468 10.1997 14.9573 10.0978 14.9515 9.84371C14.9308 8.93276 14.7815 8.04872 14.3758 7.22569C13.5422 5.53454 12.1509 4.67307 10.2953 4.51666C10.1742 4.50647 10.0518 4.50985 9.93098 4.49736C9.76146 4.47984 9.67372 4.37967 9.68048 4.209C9.68735 4.03599 9.7842 3.95054 9.95698 3.95071C10.0428 3.95077 10.1287 3.95071 10.2146 3.95071C12.6715 4.03347 14.6653 5.66821 15.2605 8.13417C15.3936 8.68586 15.4235 9.26361 15.4837 9.83122C15.5096 10.0762 15.4087 10.1919 15.228 10.1958Z" fill="white"/>
</svg>
