<svg width="26" height="12" viewBox="0 0 26 12" fill="none" xmlns="http://www.w3.org/2000/svg">
<path fill-rule="evenodd" clip-rule="evenodd" d="M0.491641 0.0110266C0.33056 0.0118588 0.166949 0.0127042 0 0.0127042C0.0111485 0.0698402 0.0196023 0.116997 0.0268863 0.157629C0.0397471 0.229369 0.0489612 0.280767 0.0629219 0.330833C0.086024 0.413621 0.109126 0.496409 0.132227 0.579198C0.5427 2.05019 0.953183 3.52122 1.36652 4.99158C1.61245 5.86663 1.85899 6.7415 2.10554 7.61636C2.48122 8.94948 2.8569 10.2826 3.23038 11.6163C3.3026 11.8744 3.41412 12.0157 3.72127 11.9986C4.23613 11.97 4.75475 11.9722 5.27002 11.9979C5.56561 12.0127 5.68459 11.9002 5.76192 11.6279C6.12821 10.3387 6.50385 9.0521 6.87948 7.7655C6.97565 7.43613 7.07181 7.10676 7.16782 6.77735C7.39113 6.01102 7.61531 5.24496 7.84763 4.45107C7.95395 4.08778 8.06196 3.71867 8.17239 3.34103C8.36177 3.99311 8.55018 4.6402 8.73749 5.28354C9.35681 7.41064 9.96421 9.4968 10.5557 11.5874C10.6479 11.9133 10.7808 12.0139 11.0965 11.9961C11.3684 11.9807 11.6413 11.9843 11.9143 11.9878C12.0325 11.9894 12.1507 11.9909 12.2688 11.9909C12.9933 11.9909 12.9943 11.987 13.1833 11.3091C13.1872 11.2952 13.1912 11.2809 13.1952 11.2664C13.8052 9.08215 14.4194 6.89908 15.0336 4.71603C15.323 3.68742 15.6124 2.6588 15.9013 1.63007C15.9986 1.28358 16.0937 0.936447 16.1945 0.56889C16.2439 0.388339 16.2948 0.202859 16.3479 0.0101069C16.1614 0.0101069 15.9813 0.0110071 15.8055 0.0118853C15.3915 0.0139541 15.002 0.0159005 14.6128 0.00566632C14.3487 -0.00128776 14.2253 0.0716882 14.1552 0.353287C13.955 1.15865 13.7369 1.95961 13.5188 2.76059C13.4301 3.08629 13.3415 3.41199 13.254 3.738C12.9274 4.95455 12.6014 6.1713 12.2688 7.41277C12.1075 8.01442 11.9448 8.62187 11.7796 9.23792C11.761 9.18796 11.7457 9.14843 11.7329 9.11535C11.7111 9.05911 11.6965 9.0215 11.6854 8.98288C11.4488 8.16404 11.213 7.34499 10.9771 6.52594C10.4323 4.63381 9.88754 2.74171 9.3338 0.852221C9.1811 0.331132 9.16288 0.127629 9.05472 0.0509075C8.94722 -0.0253474 8.75088 0.0236398 8.24536 0.0105258C8.1709 0.00860919 8.0961 0.010675 8.02135 0.0127394C7.90005 0.0160897 7.77888 0.019436 7.65954 0.00575011C7.35432 -0.0292717 7.22169 0.0953153 7.1379 0.389649C6.65111 2.10052 6.15357 3.80836 5.65603 5.51621C5.53513 5.93121 5.41423 6.34622 5.29348 6.76126C5.13782 7.29646 4.98069 7.8312 4.8144 8.3971C4.7325 8.67582 4.64838 8.9621 4.56112 9.25971C4.46149 8.89137 4.36467 8.53394 4.2699 8.18404C4.05559 7.39287 3.85172 6.64023 3.64939 5.88723C3.5205 5.40754 3.39197 4.92775 3.26343 4.44797C2.8953 3.07386 2.52718 1.69978 2.15091 0.3279C2.11798 0.207754 1.98166 0.0309691 1.88682 0.0266961C1.42991 0.00617868 0.972021 0.00854453 0.491641 0.0110266ZM17.1853 0.0135035V11.9649C17.2403 11.9684 17.2907 11.9723 17.338 11.976C17.4313 11.9833 17.5126 11.9897 17.594 11.9896C17.9048 11.9892 18.2156 11.9892 18.5263 11.9892C19.4857 11.9893 20.445 11.9894 21.4042 11.9759C21.5203 11.9743 21.6371 11.9741 21.7541 11.9739C22.2521 11.9731 22.7548 11.9722 23.2289 11.8615C24.5145 11.5613 25.4234 10.7607 25.7542 9.45983C26.0754 8.19712 25.8158 7.05154 24.7827 6.16359C24.6718 6.06822 24.5525 5.98263 24.4322 5.89634C24.3761 5.85612 24.3199 5.81575 24.2641 5.77416C24.9484 5.09568 25.224 4.64928 25.3429 4.04226C25.7418 2.00497 24.3156 0.142615 22.2351 0.0447549C21.4099 0.00594438 20.5827 0.00938699 19.7555 0.0128295C19.4005 0.0143068 19.0455 0.0157841 18.6907 0.0139224C18.3515 0.012145 18.0122 0.012604 17.6671 0.013071C17.508 0.0132864 17.3475 0.0135035 17.1853 0.0135035ZM20.1297 10.103C19.8136 10.1024 19.4942 10.1018 19.1699 10.1018V6.85356C19.195 6.84817 19.2209 6.84101 19.2475 6.83368C19.3063 6.81744 19.3681 6.80039 19.43 6.8001C19.6613 6.79912 19.8926 6.79732 20.1239 6.79552C20.8405 6.78995 21.5571 6.78437 22.2732 6.80312C23.2132 6.82775 23.9097 7.57217 23.8901 8.47888C23.8699 9.41467 23.1829 10.0925 22.2294 10.1C21.5351 10.1055 20.8409 10.1043 20.1297 10.103ZM20.0761 4.98373C19.7754 4.98002 19.4733 4.97629 19.1695 4.97629V1.91255C19.4765 1.91255 19.7821 1.90824 20.0864 1.90394C20.7918 1.89398 21.4905 1.88411 22.1857 1.92831C22.9184 1.97489 23.4198 2.68856 23.4077 3.48032C23.396 4.2477 22.8772 4.92233 22.1469 4.9628C21.4608 5.00083 20.7721 4.99232 20.0761 4.98373Z" fill="white"/>
</svg>
