<svg width="171" height="48" viewBox="0 0 171 48" fill="none" xmlns="http://www.w3.org/2000/svg">
<path d="M17.8554 38.9082C14.104 39.0793 10.7485 38.3723 7.67537 36.579C4.3564 34.6424 1.94613 31.9255 0.75524 28.1684C-1.47244 21.1413 1.34043 14.5555 7.71004 10.8385C10.5745 9.16689 13.6775 8.40051 16.9998 8.37035C19.4816 8.34789 21.9274 8.50133 24.2963 9.25426C27.0942 10.1434 29.5801 11.5791 31.6194 13.7491C32.0425 14.1994 31.9447 14.494 31.4957 14.793C31.4504 14.8232 31.4055 14.8535 31.3601 14.8835C30.7512 15.2843 30.1373 16.0033 29.5349 15.9938C28.9648 15.9848 28.4045 15.2138 27.8437 14.773C25.6672 13.0617 23.2268 12.0685 20.4802 11.6196C18.3675 11.2744 16.2844 11.2877 14.2689 11.7695C9.54162 12.8994 5.72728 15.3924 4.22507 20.2969C2.75444 25.0986 4.22637 30.0436 8.79125 33.2148C12.2666 35.6292 16.1493 36.2846 20.3086 35.7363C23.6862 35.291 26.5243 33.8389 28.9852 31.5191C29.1585 31.3557 29.6341 31.3368 29.8677 31.4549C30.4434 31.7457 30.9588 32.1575 31.5012 32.5165C31.963 32.8222 32.0298 33.123 31.6096 33.5602C29.8496 35.392 27.7928 36.7803 25.4304 37.6623C22.9272 38.5962 20.3426 39.1508 17.8554 38.9082Z" fill="#655669"/>
<path d="M160.148 27.7643C156.895 27.765 153.642 27.7647 150.39 27.7651C149.416 27.7653 149.283 27.9209 149.494 28.8461C150.35 32.6164 152.581 34.9524 156.417 35.6975C159.617 36.3189 162.486 35.6134 165.012 33.6019C165.761 33.0054 166.342 32.1757 166.929 31.3979C167.318 30.8805 167.648 30.6403 168.261 31.0539C168.637 31.3079 169.084 31.4602 169.509 31.6343C170.084 31.8698 170.253 32.1772 169.871 32.7583C167.401 36.5173 163.926 38.4046 159.467 38.5479C157.005 38.6271 154.611 38.4137 152.349 37.3317C148.693 35.5829 145.466 31.281 146.073 26.4694C146.662 21.7987 149.339 18.8792 153.544 17.1568C155.968 16.1639 158.516 16.1403 160.983 16.5235C165.304 17.1948 168.625 19.4832 170.32 23.6915C170.755 24.7731 170.819 26.0153 170.99 27.1934C171.082 27.831 170.545 27.7601 170.15 27.7607C166.815 27.7661 163.482 27.7638 160.148 27.7643ZM167.189 25.1618C166.523 21.3502 162.817 19.0497 158.308 18.9815C154.229 18.9199 150.028 22.1033 149.932 25.1618C155.662 25.1618 161.39 25.1618 167.189 25.1618Z" fill="#655669"/>
<path d="M41.0428 20.1068C42.1305 19.3026 43.0765 18.4949 44.1216 17.85C47.7789 15.5931 53.6927 15.7438 56.6256 19.1175C57.6974 20.3504 58.2946 21.7537 58.5259 23.3618C59.1945 28.0132 58.7475 32.6894 58.8746 37.3523C58.891 37.9585 58.6313 38.1947 58.0541 38.1783C57.458 38.1613 56.8598 38.1475 56.265 38.1783C55.5529 38.2152 55.3322 37.9009 55.3346 37.2005C55.3485 33.4038 55.3402 29.607 55.3036 25.8105C55.291 24.5077 55.265 23.1986 54.6611 21.9792C53.6985 20.0358 52.0194 19.2491 50.009 19.0334C46.4931 18.656 42.9463 20.6198 41.5787 23.9976C41.2493 24.8113 41.0856 25.7436 41.0679 26.626C40.9974 30.1484 40.9928 33.6728 41.0161 37.1962C41.0212 37.9678 40.7575 38.2303 40.0317 38.1814C39.4918 38.145 38.9452 38.1383 38.4059 38.179C37.6462 38.2362 37.4286 37.9009 37.4329 37.1662C37.4579 32.8505 37.4454 28.5345 37.4447 24.2187C37.4439 19.2745 37.4556 14.3304 37.426 9.38634C37.4215 8.63553 37.6547 8.37947 38.3984 8.37799C40.9974 8.37275 40.999 8.35225 41.0003 10.9983C41.0018 13.7571 40.9985 16.5161 41.0008 19.2749C41.001 19.5309 41.0259 19.7868 41.0428 20.1068Z" fill="#655669"/>
<path d="M110.467 19.9075C111.753 19.0421 112.882 18.0734 114.175 17.4518C118.136 15.5479 123.767 15.9066 126.538 19.6459C127.35 20.7417 127.922 21.9593 127.968 23.3183C128.128 28.0347 128.214 32.7538 128.344 37.4715C128.358 37.986 128.126 38.1297 127.676 38.1733C124.832 38.4485 124.846 38.4534 124.828 35.623C124.805 31.963 124.769 28.3029 124.714 24.6432C124.66 21.0116 122.562 19.3106 119.424 19.0224C115.966 18.7051 112.41 20.6519 111.058 23.9923C110.749 24.7581 110.565 25.6267 110.547 26.4526C110.474 30.0029 110.485 33.5548 110.465 37.1062C110.459 38.1006 110.395 38.1665 109.398 38.1742C108.883 38.1782 108.366 38.1497 107.852 38.179C107.145 38.2193 106.917 37.9121 106.921 37.2061C106.944 32.3707 106.933 27.5351 106.933 22.6996C106.933 21.0331 106.954 19.3662 106.921 17.7003C106.908 17.0284 107.15 16.7451 107.816 16.7762C108.412 16.8041 109.01 16.8003 109.606 16.7784C110.22 16.7559 110.503 16.9964 110.475 17.6439C110.441 18.3988 110.467 19.1562 110.467 19.9075Z" fill="#655669"/>
<path d="M101.349 33.867C100.737 34.4909 100.268 35.0816 99.6926 35.533C97.9857 36.8712 96.0558 37.685 93.9298 38.1833C91.9033 38.6584 89.8673 38.6909 87.8718 38.472C83.238 37.9638 79.3543 35.9871 77.359 31.5023C75.6688 27.703 76.4082 24.0877 79.0716 20.9274C80.9563 18.6912 83.4271 17.4504 86.2427 16.7483C88.3177 16.2309 90.4156 16.2354 92.4571 16.4862C95.5438 16.8653 98.4721 17.843 100.654 20.3171C101.3 21.0495 101.295 21.1869 100.485 21.6444C98.8099 22.5903 98.8302 22.5636 97.2867 21.371C94.6083 19.3015 91.5584 18.7025 88.2546 19.1294C85.866 19.4381 83.7836 20.365 82.0977 22.118C78.5753 25.7809 79.5082 31.2128 83.4528 33.9685C86.0084 35.7539 88.8828 36.2112 91.9659 35.7491C94.3563 35.3908 96.4065 34.4478 98.1381 32.7736C98.5017 32.4221 98.8267 32.3475 99.2818 32.6615C99.8761 33.0716 100.529 33.3954 101.349 33.867Z" fill="#655669"/>
<path d="M69.6535 29.5328C69.6533 35.1593 69.6416 40.7859 69.6678 46.4122C69.6711 47.1246 69.476 47.3633 68.7537 47.3582C66.7212 47.3438 66.721 47.3731 66.7208 45.3496C66.72 34.4244 66.7257 23.499 66.7042 12.5738C66.7028 11.8366 66.8798 11.5644 67.6543 11.5826C69.6647 11.6295 69.6573 11.5954 69.6553 13.6364C69.6506 18.9353 69.6538 24.234 69.6535 29.5328Z" fill="#655669"/>
<path d="M139.135 18.9257C139.135 24.3881 139.145 29.8505 139.114 35.3125C139.111 35.7071 138.858 36.3921 138.626 36.4366C138.027 36.5512 137.367 36.42 136.75 36.2944C136.631 36.2703 136.535 35.8226 136.535 35.5704C136.525 24.4546 136.532 13.3388 136.517 2.22305C136.516 1.48568 136.785 1.29306 137.481 1.31634C139.039 1.36863 139.15 1.01585 139.142 3.03057C139.121 8.32868 139.135 13.6271 139.135 18.9257Z" fill="#655669"/>
<path d="M68.1374 6.13373C66.4448 6.13422 65.1397 4.80703 65.1296 3.07493C65.1195 1.34283 66.4757 -0.00944294 68.2136 6.50899e-05C69.9244 0.00940919 71.2408 1.38316 71.2307 3.14886C71.2211 4.80932 69.8491 6.13324 68.1374 6.13373Z" fill="#655669"/>
<path d="M140.586 45.095C140.575 46.5099 139.142 48.003 137.798 48C136.373 47.9969 134.943 46.5204 134.948 45.0581C134.953 43.6213 136.355 42.2414 137.796 42.2541C139.276 42.2669 140.597 43.6119 140.586 45.095Z" fill="#655669"/>
</svg>
