<svg width="191" height="68" viewBox="0 0 191 68" fill="none" xmlns="http://www.w3.org/2000/svg">
<rect width="191" height="68.0001" fill="white" fill-opacity="0.4"/>
<path d="M27.8554 48.9082C24.104 49.0793 20.7485 48.3723 17.6754 46.579C14.3564 44.6424 11.9461 41.9255 10.7552 38.1684C8.52756 31.1413 11.3404 24.5555 17.71 20.8385C20.5745 19.1669 23.6775 18.4005 26.9998 18.3703C29.4816 18.3479 31.9274 18.5013 34.2963 19.2543C37.0942 20.1434 39.5801 21.5791 41.6194 23.7491C42.0425 24.1994 41.9447 24.494 41.4957 24.793C41.4504 24.8232 41.4055 24.8535 41.3601 24.8835C40.7512 25.2843 40.1373 26.0033 39.5349 25.9938C38.9648 25.9848 38.4045 25.2138 37.8437 24.773C35.6672 23.0617 33.2268 22.0685 30.4802 21.6196C28.3675 21.2744 26.2844 21.2877 24.2689 21.7695C19.5416 22.8994 15.7273 25.3924 14.2251 30.2969C12.7544 35.0986 14.2264 40.0436 18.7912 43.2148C22.2666 45.6292 26.1493 46.2846 30.3086 45.7363C33.6862 45.291 36.5243 43.8389 38.9852 41.5191C39.1585 41.3557 39.6341 41.3368 39.8677 41.4549C40.4434 41.7457 40.9588 42.1575 41.5012 42.5165C41.963 42.8222 42.0298 43.123 41.6096 43.5602C39.8496 45.392 37.7928 46.7803 35.4304 47.6623C32.9272 48.5962 30.3426 49.1508 27.8554 48.9082Z" fill="#655669"/>
<path d="M170.148 37.7643C166.895 37.765 163.642 37.7647 160.39 37.7651C159.416 37.7653 159.283 37.9209 159.494 38.8461C160.35 42.6164 162.581 44.9524 166.417 45.6975C169.617 46.3189 172.486 45.6134 175.012 43.6019C175.761 43.0054 176.342 42.1757 176.929 41.3979C177.318 40.8805 177.648 40.6403 178.261 41.0539C178.637 41.3079 179.084 41.4602 179.509 41.6343C180.084 41.8698 180.253 42.1772 179.871 42.7583C177.401 46.5173 173.926 48.4046 169.467 48.5479C167.005 48.6271 164.611 48.4137 162.349 47.3317C158.693 45.5829 155.466 41.281 156.073 36.4694C156.662 31.7987 159.339 28.8792 163.544 27.1568C165.968 26.1639 168.516 26.1403 170.983 26.5235C175.304 27.1948 178.625 29.4832 180.32 33.6915C180.755 34.7731 180.819 36.0153 180.99 37.1934C181.082 37.831 180.545 37.7601 180.15 37.7607C176.815 37.7661 173.482 37.7638 170.148 37.7643ZM177.189 35.1618C176.523 31.3502 172.817 29.0497 168.308 28.9815C164.229 28.9199 160.028 32.1033 159.932 35.1618C165.662 35.1618 171.39 35.1618 177.189 35.1618Z" fill="#655669"/>
<path d="M51.0428 30.1068C52.1305 29.3026 53.0765 28.4949 54.1216 27.85C57.7789 25.5931 63.6927 25.7438 66.6256 29.1175C67.6974 30.3504 68.2946 31.7537 68.5259 33.3618C69.1945 38.0132 68.7475 42.6894 68.8746 47.3523C68.891 47.9585 68.6313 48.1947 68.0541 48.1783C67.458 48.1613 66.8598 48.1475 66.265 48.1783C65.5529 48.2152 65.3322 47.9009 65.3346 47.2005C65.3485 43.4038 65.3402 39.607 65.3036 35.8105C65.291 34.5077 65.265 33.1986 64.6611 31.9792C63.6985 30.0358 62.0194 29.2491 60.009 29.0334C56.4931 28.656 52.9463 30.6198 51.5787 33.9976C51.2493 34.8113 51.0856 35.7436 51.0679 36.626C50.9974 40.1484 50.9928 43.6728 51.0161 47.1962C51.0212 47.9678 50.7575 48.2303 50.0317 48.1814C49.4918 48.145 48.9452 48.1383 48.4059 48.179C47.6462 48.2362 47.4286 47.9009 47.4329 47.1662C47.4579 42.8505 47.4454 38.5345 47.4447 34.2187C47.4439 29.2745 47.4556 24.3304 47.426 19.3863C47.4215 18.6355 47.6547 18.3795 48.3984 18.378C50.9974 18.3727 50.999 18.3523 51.0003 20.9983C51.0018 23.7571 50.9985 26.5161 51.0008 29.2749C51.001 29.5309 51.0259 29.7868 51.0428 30.1068Z" fill="#655669"/>
<path d="M120.467 29.9075C121.753 29.0421 122.882 28.0734 124.175 27.4518C128.136 25.5479 133.767 25.9066 136.538 29.6459C137.35 30.7417 137.922 31.9593 137.968 33.3183C138.128 38.0347 138.214 42.7538 138.344 47.4715C138.358 47.986 138.126 48.1297 137.676 48.1733C134.832 48.4485 134.846 48.4534 134.828 45.623C134.805 41.963 134.769 38.3029 134.714 34.6432C134.66 31.0116 132.562 29.3106 129.424 29.0224C125.966 28.7051 122.41 30.6519 121.058 33.9923C120.749 34.7581 120.565 35.6267 120.547 36.4526C120.474 40.0029 120.485 43.5548 120.465 47.1062C120.459 48.1006 120.395 48.1665 119.398 48.1742C118.883 48.1782 118.366 48.1497 117.852 48.179C117.145 48.2193 116.917 47.9121 116.921 47.2061C116.944 42.3707 116.933 37.5351 116.933 32.6996C116.933 31.0331 116.954 29.3662 116.921 27.7003C116.908 27.0284 117.15 26.7451 117.816 26.7762C118.412 26.8041 119.01 26.8003 119.606 26.7784C120.22 26.7559 120.503 26.9964 120.475 27.6439C120.441 28.3988 120.467 29.1562 120.467 29.9075Z" fill="#655669"/>
<path d="M111.349 43.867C110.737 44.4909 110.268 45.0816 109.693 45.533C107.986 46.8712 106.056 47.685 103.93 48.1833C101.903 48.6584 99.8673 48.6909 97.8718 48.472C93.238 47.9638 89.3543 45.9871 87.359 41.5023C85.6688 37.703 86.4082 34.0877 89.0716 30.9274C90.9563 28.6912 93.4271 27.4504 96.2427 26.7483C98.3177 26.2309 100.416 26.2354 102.457 26.4862C105.544 26.8653 108.472 27.843 110.654 30.3171C111.3 31.0495 111.295 31.1869 110.485 31.6444C108.81 32.5903 108.83 32.5636 107.287 31.371C104.608 29.3015 101.558 28.7025 98.2546 29.1294C95.866 29.4381 93.7836 30.365 92.0977 32.118C88.5753 35.7809 89.5082 41.2128 93.4528 43.9685C96.0084 45.7539 98.8828 46.2112 101.966 45.7491C104.356 45.3908 106.406 44.4478 108.138 42.7736C108.502 42.4221 108.827 42.3475 109.282 42.6615C109.876 43.0716 110.529 43.3954 111.349 43.867Z" fill="#655669"/>
<path d="M79.6535 39.5328C79.6533 45.1593 79.6416 50.7859 79.6678 56.4122C79.6711 57.1246 79.476 57.3633 78.7537 57.3582C76.7212 57.3438 76.721 57.3731 76.7208 55.3496C76.72 44.4244 76.7257 33.499 76.7042 22.5738C76.7028 21.8366 76.8798 21.5644 77.6543 21.5826C79.6647 21.6295 79.6573 21.5954 79.6553 23.6364C79.6506 28.9353 79.6538 34.234 79.6535 39.5328Z" fill="#655669"/>
<path d="M149.135 28.9257C149.135 34.3881 149.145 39.8505 149.114 45.3125C149.111 45.7071 148.858 46.3921 148.626 46.4366C148.027 46.5512 147.367 46.42 146.75 46.2944C146.631 46.2703 146.535 45.8226 146.535 45.5704C146.525 34.4546 146.532 23.3388 146.517 12.223C146.516 11.4857 146.785 11.2931 147.481 11.3163C149.039 11.3686 149.15 11.0159 149.142 13.0306C149.121 18.3287 149.135 23.6271 149.135 28.9257Z" fill="#655669"/>
<path d="M78.1374 16.1337C76.4448 16.1342 75.1397 14.807 75.1296 13.0749C75.1195 11.3428 76.4757 9.99056 78.2136 10.0001C79.9244 10.0094 81.2408 11.3832 81.2307 13.1489C81.2211 14.8093 79.8491 16.1332 78.1374 16.1337Z" fill="#655669"/>
<path d="M150.586 55.095C150.575 56.5099 149.142 58.003 147.798 58C146.373 57.9969 144.943 56.5204 144.948 55.0581C144.953 53.6213 146.355 52.2414 147.796 52.2541C149.276 52.2669 150.597 53.6119 150.586 55.095Z" fill="#655669"/>
</svg>
