<svg width="144" height="41" viewBox="0 0 144 41" fill="none" xmlns="http://www.w3.org/2000/svg">
<path fill-rule="evenodd" clip-rule="evenodd" d="M57.1988 5.51524C55.7779 5.51565 54.6823 4.40965 54.6738 2.96624C54.6654 1.52282 55.8039 0.395927 57.2627 0.40385C58.6989 0.411637 59.804 1.55643 59.7955 3.02785C59.7874 4.41157 58.6357 5.51483 57.1988 5.51524ZM116.799 18.8991C116.799 17.9911 116.799 17.083 116.799 16.175C116.799 14.9055 116.798 13.636 116.797 12.3665C116.794 9.22057 116.792 6.07476 116.805 2.92908C116.811 1.49993 116.744 1.50032 115.917 1.5052C115.772 1.50605 115.605 1.50704 115.41 1.50055C114.826 1.48115 114.6 1.64167 114.601 2.25614C114.608 7.58643 114.609 12.9168 114.611 18.2471C114.611 22.1799 114.612 26.1128 114.616 30.0456C114.616 30.2558 114.697 30.6289 114.796 30.649C115.315 30.7536 115.869 30.8629 116.372 30.7674C116.566 30.7304 116.779 30.1595 116.781 29.8307C116.802 26.1869 116.801 22.543 116.799 18.8991ZM14.9889 32.8273C11.8398 32.97 9.02293 32.3808 6.44319 30.8864C3.65703 29.2725 1.63371 27.0085 0.633996 23.8775C-1.23605 18.0216 1.12524 12.5334 6.47229 9.43595C8.87689 8.04294 11.4818 7.40429 14.2707 7.37915C16.3541 7.36044 18.4072 7.4883 20.3958 8.11575C22.7446 8.85672 24.8314 10.0531 26.5433 11.8615C26.8984 12.2367 26.8163 12.4822 26.4394 12.7314L26.3974 12.7593L26.3624 12.7826L26.3256 12.8068C26.1702 12.9083 26.0144 13.0344 25.8586 13.1605C25.502 13.449 25.1454 13.7376 24.7934 13.732C24.4585 13.7268 24.1275 13.4104 23.7976 13.0951C23.6562 12.9599 23.515 12.8249 23.3738 12.7147C21.5466 11.2886 19.498 10.4609 17.1923 10.0869C15.4189 9.79919 13.6701 9.81026 11.9782 10.2118C8.00983 11.1534 4.80783 13.2308 3.54679 17.3179C2.31225 21.3194 3.54788 25.4402 7.37992 28.0829C10.2974 30.0949 13.5567 30.641 17.0483 30.1841C19.8837 29.8131 22.2661 28.603 24.332 26.6698C24.4775 26.5336 24.8768 26.5179 25.0728 26.6163C25.4086 26.7846 25.7199 27.0017 26.0314 27.2188L26.0314 27.2188L26.0314 27.2188L26.0314 27.2188L26.0314 27.2188L26.0315 27.2188L26.0315 27.2189L26.0315 27.2189L26.0315 27.2189L26.0316 27.2189L26.0316 27.2189L26.0316 27.219L26.0317 27.219L26.0317 27.219L26.0317 27.219C26.1685 27.3144 26.3052 27.4097 26.4441 27.5009C26.8318 27.7557 26.8878 28.0064 26.5351 28.3707C25.0576 29.8972 23.331 31.0542 21.3479 31.7891C19.2465 32.5674 17.0769 33.0295 14.9889 32.8273ZM134.438 23.5406C132.95 23.5409 131.462 23.5409 129.974 23.541L126.247 23.5413C125.429 23.5414 125.318 23.671 125.494 24.4421C126.213 27.5839 128.086 29.5306 131.306 30.1515C133.992 30.6694 136.401 30.0814 138.521 28.4052C139.079 27.964 139.527 27.3697 139.964 26.7884L139.968 26.7831L140.052 26.6718L140.13 26.5685C140.458 26.1374 140.734 25.9373 141.249 26.2819C141.504 26.4532 141.799 26.569 142.091 26.6838C142.16 26.7109 142.229 26.7379 142.297 26.7655C142.78 26.9618 142.921 27.218 142.6 27.7022C140.526 30.8347 137.61 32.4075 133.866 32.5269C131.8 32.5929 129.79 32.415 127.892 31.5134C124.822 30.056 122.114 26.4711 122.623 22.4615C123.117 18.5692 125.364 16.1363 128.894 14.701C130.929 13.8735 133.068 13.8539 135.139 14.1732C138.766 14.7327 141.554 16.6396 142.977 20.1465C143.26 20.8434 143.356 21.6203 143.451 22.3906L143.451 22.3914C143.479 22.6172 143.507 22.8423 143.539 23.0648C143.61 23.5481 143.243 23.5429 142.927 23.5384C142.895 23.538 142.864 23.5375 142.834 23.5376C140.78 23.5409 138.726 23.5407 136.672 23.5406H136.668C135.925 23.5405 135.181 23.5405 134.438 23.5406ZM140.349 21.3718C139.79 18.1954 136.679 16.2784 132.894 16.2216C129.47 16.1702 125.943 18.823 125.862 21.3718H140.349ZM35.3022 16.5185L35.3019 16.5187L35.3016 16.519L35.3013 16.5192C35.0266 16.7299 34.7464 16.9448 34.454 17.1595C34.4493 17.0716 34.4439 16.9895 34.4387 16.9113L34.4387 16.9112C34.4282 16.7522 34.4188 16.6092 34.4187 16.4662C34.4177 15.2255 34.418 13.9847 34.4183 12.7439V12.7295C34.4186 11.676 34.4189 10.6225 34.4183 9.56905C34.4172 7.38098 34.4159 7.38098 32.284 7.38538L32.2341 7.38548C31.6097 7.38671 31.414 7.6001 31.4178 8.22577C31.4369 11.3871 31.4355 14.5486 31.4342 17.71V17.7109C31.4338 18.6693 31.4334 19.6277 31.4335 20.5861C31.4337 21.4498 31.4344 22.3135 31.4351 23.1772V23.178C31.4373 25.9106 31.4395 28.6432 31.4235 31.3756C31.42 31.9879 31.6026 32.2673 32.2403 32.2196C32.6931 32.1857 33.1519 32.1913 33.6052 32.2217C34.2145 32.2624 34.4358 32.0437 34.4316 31.4006C34.412 28.4645 34.4158 25.5275 34.475 22.5922C34.4899 21.8568 34.6273 21.0799 34.9038 20.4018C36.0519 17.5869 39.0293 15.9505 41.9807 16.265C43.6684 16.4448 45.0779 17.1003 45.886 18.7198C46.393 19.736 46.4148 20.8269 46.4253 21.9126C46.4561 25.0763 46.463 28.2403 46.4514 31.4042C46.4494 31.9879 46.6346 32.2498 47.2324 32.2191C47.7317 32.1934 48.2339 32.2049 48.7343 32.2191C49.2189 32.2327 49.4369 32.0359 49.4231 31.5307C49.3868 30.2106 49.4062 28.8892 49.4256 27.5678V27.5678V27.5677V27.5677V27.5676V27.5676V27.5676C49.4633 24.9995 49.501 22.4313 49.1303 19.872C48.9362 18.5319 48.4349 17.3625 47.5351 16.3351C45.073 13.5236 40.1086 13.3981 37.0385 15.2788C36.4425 15.6439 35.8848 16.0716 35.3022 16.5185ZM92.7328 16.9934C93.0763 16.764 93.4064 16.5259 93.7319 16.2912C94.4295 15.788 95.1056 15.3003 95.8459 14.947C99.1711 13.3604 103.898 13.6593 106.224 16.7754C106.906 17.6886 107.386 18.7032 107.424 19.8357C107.508 22.2891 107.568 24.7432 107.627 27.1974V27.1976V27.1977V27.1979V27.198V27.1982C107.663 28.6755 107.699 30.1529 107.74 31.6301C107.752 32.0589 107.557 32.1786 107.179 32.2149L107.163 32.2164C105.975 32.3306 105.385 32.3873 105.09 32.1193C104.8 31.8553 104.796 31.2761 104.789 30.126L104.789 30.0897C104.769 27.0397 104.739 23.9896 104.693 20.9398C104.647 17.9135 102.886 16.496 100.252 16.2559C97.3494 15.9914 94.3642 17.6138 93.2294 20.3975C92.9693 21.0356 92.8148 21.7595 92.8004 22.4477C92.7558 24.6016 92.7486 26.7563 92.7413 28.911V28.9123C92.7387 29.7167 92.736 30.5212 92.7313 31.3257C92.7265 32.1544 92.6722 32.2093 91.8354 32.2157C91.68 32.2169 91.5244 32.2146 91.3688 32.2123C91.0915 32.2081 90.8143 32.204 90.5381 32.2197C89.9439 32.2533 89.753 31.9973 89.7558 31.4089C89.7708 28.3275 89.7691 25.2459 89.7674 22.1643C89.7669 21.2162 89.7664 20.2682 89.7663 19.3202C89.7663 18.9315 89.7677 18.5429 89.7691 18.1543V18.1533C89.7727 17.1534 89.7762 16.1535 89.7562 15.1541C89.745 14.5942 89.948 14.3581 90.5077 14.384C91.0076 14.4073 91.5098 14.4041 92.0099 14.3858C92.5252 14.3671 92.7634 14.5675 92.7392 15.1071C92.7197 15.5457 92.7243 15.9853 92.7289 16.4234V16.4242V16.425V16.4258V16.4266C92.7308 16.6159 92.7328 16.8049 92.7328 16.9934ZM84.6088 29.1209L84.6089 29.1208L84.6091 29.1206C84.7577 28.9607 84.9118 28.7949 85.0786 28.6262C84.8615 28.5022 84.6583 28.3905 84.4662 28.2849L84.4657 28.2846L84.4648 28.2841L84.464 28.2837L84.4635 28.2834L84.4634 28.2834L84.4632 28.2832C84.0476 28.0548 83.6841 27.855 83.3434 27.6215C82.9613 27.3599 82.6885 27.4221 82.3833 27.715C80.9296 29.1102 79.2086 29.896 77.202 30.1946C74.6137 30.5797 72.2008 30.1985 70.0555 28.7107C66.7442 26.4143 65.961 21.8878 68.9179 18.8354C70.3332 17.3744 72.0813 16.6021 74.0864 16.3448C76.8599 15.9891 79.4201 16.4883 81.6685 18.2128L81.7395 18.2672C82.9641 19.2072 82.9734 19.2143 84.3531 18.4407C85.0331 18.0594 85.0374 17.9449 84.4952 17.3346C82.6636 15.2728 80.2055 14.4581 77.6142 14.1421C75.9005 13.9331 74.1394 13.9294 72.3975 14.3606C70.0339 14.9457 67.9597 15.9797 66.3777 17.8432C64.1418 20.4767 63.5212 23.4895 64.94 26.6556C66.615 30.3929 69.8752 32.0402 73.7651 32.4637C75.4402 32.646 77.1494 32.619 78.8506 32.2231C80.6352 31.8078 82.2553 31.1297 83.6882 30.0145C84.0145 29.7605 84.2997 29.4536 84.6088 29.1209ZM58.4715 25.0144C58.4715 26.1099 58.4709 27.2054 58.4703 28.301C58.4685 31.8942 58.4666 35.4874 58.4835 39.0805C58.4862 39.6742 58.3224 39.8731 57.7162 39.8689L57.644 39.8684C56.0099 39.8572 56.0097 39.8572 56.0096 38.195C56.0095 36.4351 56.0096 34.6751 56.0096 32.9151C56.0099 25.5707 56.0102 18.2262 55.9957 10.8818C55.9944 10.2675 56.1431 10.0407 56.7932 10.0559L56.8746 10.0578C57.6658 10.0758 58.0657 10.085 58.2677 10.2896C58.4742 10.4988 58.4738 10.9122 58.473 11.7484L58.473 11.7673C58.4702 14.8141 58.4707 17.8609 58.4712 20.9076C58.4714 22.2765 58.4716 23.6454 58.4715 25.0144ZM115.676 40.4039C116.805 40.4063 118.007 39.1621 118.016 37.983C118.026 36.7471 116.917 35.6262 115.675 35.6156C114.465 35.605 113.288 36.7549 113.284 37.9523C113.279 39.1708 114.48 40.4013 115.676 40.4039Z" fill="#FFFFEF"/>
</svg>
